<svg version="1.1" viewBox="0.0 0.0 818.0 506.0" fill="none" stroke="none" stroke-linecap="square" stroke-miterlimit="10" width="818" height="506" xmlns:xlink="http://www.w3.org/1999/xlink" xmlns="http://www.w3.org/2000/svg"><path fill="#ffffff" d="M0 0L818.0 0L818.0 506.0L0 506.0L0 0Z" fill-rule="nonzero"/><path stroke="#333333" stroke-width="1.0" stroke-linecap="butt" d="M81.5 441.5L792.5 441.5" fill-rule="nonzero"/><path stroke="#cccccc" stroke-width="1.0" stroke-linecap="butt" d="M81.5 338.5L792.5 338.5" fill-rule="nonzero"/><path stroke="#cccccc" stroke-width="1.0" stroke-linecap="butt" d="M81.5 236.5L792.5 236.5" fill-rule="nonzero"/><path stroke="#cccccc" stroke-width="1.0" stroke-linecap="butt" d="M81.5 134.5L792.5 134.5" fill-rule="nonzero"/><path stroke="#cccccc" stroke-width="1.0" stroke-linecap="butt" d="M81.5 31.5L792.5 31.5" fill-rule="nonzero"/><clipPath id="id_0"><path d="M81.3 31.8L792.7 31.8L792.7 441.2L81.3 441.2L81.3 31.8Z" clip-rule="nonzero"/></clipPath><path stroke="#1c4587" stroke-width="3.0" stroke-linecap="butt" clip-path="url(#id_0)" d="M140.58333 441.2L259.15 424.824L377.71667 408.448L496.28333 64.552L614.85 48.176L733.4167 31.8" fill-rule="nonzero"/><path fill="#000000" fill-opacity="0.0" clip-path="url(#id_0)" d="M143.58333 441.2C143.58333 442.85684 142.24019 444.2 140.58333 444.2C138.92648 444.2 137.58333 442.85684 137.58333 441.2C137.58333 439.54315 138.92648 438.2 140.58333 438.2C142.24019 438.2 143.58333 439.54315 143.58333 441.2Z" fill-rule="nonzero"/><path fill="#000000" fill-opacity="0.0" clip-path="url(#id_0)" d="M262.15 424.824C262.15 426.48087 260.80685 427.824 259.15 427.824C257.49313 427.824 256.15 426.48087 256.15 424.824C256.15 423.16714 257.49313 421.824 259.15 421.824C260.80685 421.824 262.15 423.16714 262.15 424.824Z" fill-rule="nonzero"/><path fill="#000000" fill-opacity="0.0" clip-path="url(#id_0)" d="M380.71667 408.448C380.71667 410.10486 379.37354 411.448 377.71667 411.448C376.0598 411.448 374.71667 410.10486 374.71667 408.448C374.71667 406.79114 376.0598 405.448 377.71667 405.448C379.37354 405.448 380.71667 406.79114 380.71667 408.448Z" fill-rule="nonzero"/><path fill="#000000" fill-opacity="0.0" clip-path="url(#id_0)" d="M499.28333 64.552C499.28333 66.208855 497.9402 67.552 496.28333 67.552C494.62646 67.552 493.28333 66.208855 493.28333 64.552C493.28333 62.895145 494.62646 61.552 496.28333 61.552C497.9402 61.552 499.28333 62.895145 499.28333 64.552Z" fill-rule="nonzero"/><path fill="#000000" fill-opacity="0.0" clip-path="url(#id_0)" d="M617.85 48.176C617.85 49.832855 616.50684 51.176 614.85 51.176C613.1931 51.176 611.85 49.832855 611.85 48.176C611.85 46.519146 613.1931 45.176 614.85 45.176C616.50684 45.176 617.85 46.519146 617.85 48.176Z" fill-rule="nonzero"/><path fill="#000000" fill-opacity="0.0" clip-path="url(#id_0)" d="M736.4167 31.8C736.4167 33.456856 735.07355 34.8 733.4167 34.8C731.7598 34.8 730.4167 33.456856 730.4167 31.8C730.4167 30.143147 731.7598 28.8 733.4167 28.8C735.07355 28.8 736.4167 30.143147 736.4167 31.8Z" fill-rule="nonzero"/><path fill="#222222" d="M437.98438 469.825L437.71875 471.35626L438.875 471.35626L438.71875 472.2L437.57812 472.2L436.90625 476.1375Q436.89062 476.29376 436.90625 476.41876Q436.95312 476.8719 437.40625 476.8719Q437.59375 476.8719 437.92188 476.825L437.84375 477.7Q437.45312 477.8094 437.0625 477.8094Q436.4375 477.79376 436.10938 477.34064Q435.79688 476.8875 435.875 476.1219L436.51562 472.2L435.39062 472.2L435.54688 471.35626L436.65625 471.35626L436.92188 469.825L437.98438 469.825Z" fill-rule="nonzero"/><path fill="#424242" d="M35.83126 250.09375L30.956263 248.51562L30.956263 247.40625L37.30001 249.6875L37.30001 250.51562L30.956263 252.8125L30.956263 251.70312L35.83126 250.09375ZM37.30001 242.26562Q37.11251 242.35938 36.628136 242.42188Q37.42501 243.17188 37.42501 244.21875Q37.42501 245.15625 36.89376 245.76562Q36.36251 246.35938 35.534386 246.35938Q34.55001 246.35938 34.003136 245.60938Q33.45626 244.85938 33.45626 243.48438L33.45626 242.4375L32.95626 242.4375Q32.39376 242.4375 32.065636 242.78125Q31.721888 243.10938 31.721888 243.78125Q31.721888 244.35938 32.01876 244.75Q32.30001 245.14062 32.721886 245.14062L32.721886 246.23438Q32.23751 246.23438 31.800013 245.90625Q31.362513 245.5625 31.112513 244.98438Q30.846888 244.40625 30.846888 243.71875Q30.846888 242.60938 31.393763 242.0Q31.940638 241.375 32.89376 241.34375L35.815636 241.34375Q36.690636 241.34375 37.20626 241.125L37.30001 241.125L37.30001 242.26562ZM36.471886 244.0625Q36.471886 243.54688 36.20626 243.09375Q35.940636 242.64062 35.51876 242.4375L34.221886 242.4375L34.221886 243.28125Q34.221886 245.28125 35.39376 245.28125Q35.89376 245.28125 36.190636 244.9375Q36.471886 244.59375 36.471886 244.0625ZM37.30001 238.0L37.30001 239.07812L28.300013 239.07812L28.300013 238.0L37.30001 238.0ZM34.065636 236.46875Q33.14376 236.46875 32.39376 236.10938Q31.643763 235.73438 31.253138 235.07812Q30.846888 234.42188 30.846888 233.59375Q30.846888 232.29688 31.737513 231.5Q32.628136 230.6875 34.128136 230.6875L34.20626 230.6875Q35.128136 230.6875 35.86251 231.04688Q36.596886 231.40625 37.01876 232.0625Q37.42501 232.71875 37.42501 233.57812Q37.42501 234.85938 36.534386 235.67188Q35.628136 236.46875 34.14376 236.46875L34.065636 236.46875ZM34.20626 235.375Q35.253136 235.375 35.89376 234.89062Q36.534386 234.39062 36.534386 233.57812Q36.534386 232.75 35.89376 232.26562Q35.23751 231.78125 34.065636 231.78125Q33.034386 231.78125 32.39376 232.28125Q31.737513 232.76562 31.737513 233.59375Q31.737513 234.39062 32.378136 234.89062Q33.003136 235.375 34.20626 235.375ZM31.925013 226.10938Q31.893763 226.35938 31.893763 226.64062Q31.893763 227.71875 32.80001 228.09375L37.30001 228.09375L37.30001 229.17188L30.956263 229.17188L30.956263 228.125L31.690638 228.10938Q30.846888 227.57812 30.846888 226.59375Q30.846888 226.28125 30.925013 226.10938L31.925013 226.10938ZM37.42501 222.54688Q37.42501 223.84375 36.58126 224.65625Q35.721886 225.45312 34.30001 225.45312L34.11251 225.45312Q33.159386 225.45312 32.42501 225.09375Q31.675013 224.73438 31.268763 224.09375Q30.846888 223.4375 30.846888 222.6875Q30.846888 221.45312 31.659388 220.76562Q32.471886 220.07812 33.98751 220.07812L34.440636 220.07812L34.440636 224.375Q35.378136 224.34375 35.95626 223.82812Q36.534386 223.29688 36.534386 222.48438Q36.534386 221.92188 36.30001 221.53125Q36.065636 221.125 35.67501 220.8125L36.190636 220.15625Q37.42501 220.95312 37.42501 222.54688ZM31.737513 222.6875Q31.737513 223.34375 32.221886 223.79688Q32.690636 224.23438 33.55001 224.32812L33.55001 221.15625L33.471886 221.15625Q32.64376 221.20312 32.190636 221.60938Q31.737513 222.0 31.737513 222.6875Z" fill-rule="nonzero"/><path fill="#b7b7b7" d="M75.34688 441.66876Q75.34688 443.2469 74.8 444.02814Q74.26875 444.79376 73.1125 444.79376Q71.97188 444.79376 71.425 444.04376Q70.87813 443.29376 70.8625 441.79376L70.8625 440.59064Q70.8625 439.0125 71.39375 438.2625Q71.94063 437.4969 73.09688 437.4969Q74.25313 437.4969 74.78438 438.23126Q75.33125 438.96564 75.34688 440.4969L75.34688 441.66876ZM74.44063 440.4344Q74.44063 439.27814 74.1125 438.7625Q73.8 438.23126 73.09688 438.23126Q72.40938 438.23126 72.08125 438.7625Q71.76875 439.27814 71.76875 440.35626L71.76875 441.8094Q71.76875 442.96564 72.09688 443.5125Q72.44063 444.0594 73.1125 444.0594Q73.78438 444.0594 74.09688 443.54376Q74.425 443.02814 74.44063 441.91876L74.44063 440.4344Z" fill-rule="nonzero"/><path fill="#b7b7b7" d="M69.55 342.35L64.89375 342.35L64.89375 341.69376L67.34688 338.95938Q67.89375 338.35 68.09688 337.95938Q68.31563 337.56876 68.31563 337.14688Q68.31563 336.6 67.97188 336.24063Q67.64375 335.88126 67.08125 335.88126Q66.40938 335.88126 66.03438 336.27188Q65.65938 336.64688 65.65938 337.33438L64.75313 337.33438Q64.75313 336.35 65.37813 335.75626Q66.01875 335.14688 67.08125 335.14688Q68.06563 335.14688 68.64375 335.6625Q69.22188 336.17813 69.22188 337.05313Q69.22188 338.1 67.87813 339.55313L65.9875 341.61563L69.55 341.61563L69.55 342.35ZM71.3 338.7875L71.675 335.24063L75.31563 335.24063L75.31563 336.06876L72.44063 336.06876L72.22188 338.00626Q72.7375 337.70938 73.40938 337.70938Q74.37813 337.70938 74.94063 338.35Q75.51875 338.99063 75.51875 340.08438Q75.51875 341.17813 74.925 341.81876Q74.33125 342.44376 73.26875 342.44376Q72.33125 342.44376 71.72188 341.92813Q71.12813 341.39688 71.05 340.475L71.90938 340.475Q71.9875 341.08438 72.33125 341.39688Q72.69063 341.70938 73.26875 341.70938Q73.89375 341.70938 74.25313 341.2875Q74.6125 340.85 74.6125 340.1Q74.6125 339.38126 74.22188 338.95938Q73.84688 338.52188 73.19063 338.52188Q72.6125 338.52188 72.26875 338.77188L72.03438 338.975L71.3 338.7875Z" fill-rule="nonzero"/><path fill="#b7b7b7" d="M65.3 236.4375L65.675 232.89062L69.31563 232.89062L69.31563 233.71875L66.44063 233.71875L66.22188 235.65625Q66.7375 235.35938 67.40938 235.35938Q68.37813 235.35938 68.94063 236.0Q69.51875 236.64062 69.51875 237.73438Q69.51875 238.82812 68.925 239.46875Q68.33125 240.09375 67.26875 240.09375Q66.33125 240.09375 65.72188 239.57812Q65.12813 239.04688 65.05 238.125L65.90938 238.125Q65.9875 238.73438 66.33125 239.04688Q66.69063 239.35938 67.26875 239.35938Q67.89375 239.35938 68.25313 238.9375Q68.6125 238.5 68.6125 237.75Q68.6125 237.03125 68.22188 236.60938Q67.84688 236.17188 67.19063 236.17188Q66.6125 236.17188 66.26875 236.42188L66.03438 236.625L65.3 236.4375ZM75.34688 236.96875Q75.34688 238.54688 74.8 239.32812Q74.26875 240.09375 73.1125 240.09375Q71.97188 240.09375 71.425 239.34375Q70.87813 238.59375 70.8625 237.09375L70.8625 235.89062Q70.8625 234.3125 71.39375 233.5625Q71.94063 232.79688 73.09688 232.79688Q74.25313 232.79688 74.78438 233.53125Q75.33125 234.26562 75.34688 235.79688L75.34688 236.96875ZM74.44063 235.73438Q74.44063 234.57812 74.1125 234.0625Q73.8 233.53125 73.09688 233.53125Q72.40938 233.53125 72.08125 234.0625Q71.76875 234.57812 71.76875 235.65625L71.76875 237.10938Q71.76875 238.26562 72.09688 238.8125Q72.44063 239.35938 73.1125 239.35938Q73.78438 239.35938 74.09688 238.84375Q74.425 238.32812 74.44063 237.21875L74.44063 235.73438Z" fill-rule="nonzero"/><path fill="#b7b7b7" d="M69.4875 131.04062L66.53438 137.65L65.59688 137.65L68.51875 131.275L64.675 131.275L64.675 130.54062L69.4875 130.54062L69.4875 131.04062ZM71.3 134.0875L71.675 130.54062L75.31563 130.54062L75.31563 131.36874L72.44063 131.36874L72.22188 133.30624Q72.7375 133.00937 73.40938 133.00937Q74.37813 133.00937 74.94063 133.65Q75.51875 134.29062 75.51875 135.38437Q75.51875 136.47812 74.925 137.11874Q74.33125 137.74374 73.26875 137.74374Q72.33125 137.74374 71.72188 137.22812Q71.12813 136.69687 71.05 135.775L71.90938 135.775Q71.9875 136.38437 72.33125 136.69687Q72.69063 137.00937 73.26875 137.00937Q73.89375 137.00937 74.25313 136.5875Q74.6125 136.15 74.6125 135.4Q74.6125 134.68124 74.22188 134.25937Q73.84688 133.82187 73.19063 133.82187Q72.6125 133.82187 72.26875 134.07187L72.03438 134.275L71.3 134.0875Z" fill-rule="nonzero"/><path fill="#b7b7b7" d="M61.8625 35.3L60.95625 35.3L60.95625 29.284374L59.128124 29.940624L59.128124 29.128124L61.721874 28.159374L61.8625 28.159374L61.8625 35.3ZM69.34688 32.26875Q69.34688 33.846874 68.8 34.628124Q68.26875 35.39375 67.1125 35.39375Q65.97188 35.39375 65.425 34.64375Q64.87813 33.89375 64.8625 32.39375L64.8625 31.190624Q64.8625 29.6125 65.39375 28.8625Q65.94063 28.096874 67.09688 28.096874Q68.25313 28.096874 68.78438 28.83125Q69.33125 29.565624 69.34688 31.096874L69.34688 32.26875ZM68.44063 31.034374Q68.44063 29.878124 68.1125 29.3625Q67.8 28.83125 67.09688 28.83125Q66.40938 28.83125 66.08125 29.3625Q65.76875 29.878124 65.76875 30.95625L65.76875 32.409374Q65.76875 33.565624 66.09688 34.1125Q66.44063 34.659374 67.1125 34.659374Q67.78438 34.659374 68.09688 34.14375Q68.425 33.628124 68.44063 32.51875L68.44063 31.034374ZM75.34688 32.26875Q75.34688 33.846874 74.8 34.628124Q74.26875 35.39375 73.1125 35.39375Q71.97188 35.39375 71.425 34.64375Q70.87813 33.89375 70.8625 32.39375L70.8625 31.190624Q70.8625 29.6125 71.39375 28.8625Q71.94063 28.096874 73.09688 28.096874Q74.25313 28.096874 74.78438 28.83125Q75.33125 29.565624 75.34688 31.096874L75.34688 32.26875ZM74.44063 31.034374Q74.44063 29.878124 74.1125 29.3625Q73.8 28.83125 73.09688 28.83125Q72.40938 28.83125 72.08125 29.3625Q71.76875 29.878124 71.76875 30.95625L71.76875 32.409374Q71.76875 33.565624 72.09688 34.1125Q72.44063 34.659374 73.1125 34.659374Q73.78438 34.659374 74.09688 34.14375Q74.425 33.628124 74.44063 32.51875L74.44063 31.034374Z" fill-rule="nonzero"/></svg>