<svg version="1.1" viewBox="0.0 0.0 627.0 394.0" fill="none" stroke="none" stroke-linecap="square" stroke-miterlimit="10" width="627" height="394" xmlns:xlink="http://www.w3.org/1999/xlink" xmlns="http://www.w3.org/2000/svg"><path fill="#ffffff" d="M0 0L627.0 0L627.0 394.0L0 394.0L0 0Z" fill-rule="nonzero"/><path stroke="#333333" stroke-width="1.0" stroke-linecap="butt" d="M67.5 350.5L606.5 350.5" fill-rule="nonzero"/><path stroke="#cccccc" stroke-width="1.0" stroke-linecap="butt" d="M67.5 268.5L606.5 268.5" fill-rule="nonzero"/><path stroke="#cccccc" stroke-width="1.0" stroke-linecap="butt" d="M67.5 187.5L606.5 187.5" fill-rule="nonzero"/><path stroke="#cccccc" stroke-width="1.0" stroke-linecap="butt" d="M67.5 106.5L606.5 106.5" fill-rule="nonzero"/><path stroke="#cccccc" stroke-width="1.0" stroke-linecap="butt" d="M67.5 24.5L606.5 24.5" fill-rule="nonzero"/><clipPath id="id_0"><path d="M67.39252 24.852083L606.6481 24.852083L606.6481 350.27408L67.39252 350.27408L67.39252 24.852083Z" clip-rule="nonzero"/></clipPath><path stroke="#1c4587" stroke-width="3.0" stroke-linecap="butt" clip-path="url(#id_0)" d="M82.37183 350.27408L112.33048 347.01984L142.28912 343.76562L172.24777 275.427L202.2064 272.1728L232.16505 268.91858L262.1237 268.91858L292.08234 265.66434L322.041 262.41013L351.99963 194.07152L381.95828 190.81729L411.9169 187.56308L441.87555 187.56308L471.8342 184.30885L501.79285 181.05464L531.75146 112.71602L561.71014 109.4618L591.66876 106.20758" fill-rule="nonzero"/><path stroke="#6d9eeb" stroke-width="3.0" stroke-linecap="butt" clip-path="url(#id_0)" d="M82.37183 350.27408L112.33048 280.30835L142.28912 280.30835L172.24777 210.3426L202.2064 210.3426L232.16505 140.37689L262.1237 140.37689L292.08234 70.41116" fill-rule="nonzero"/><path fill="#000000" fill-opacity="0.0" clip-path="url(#id_0)" d="M85.37183 350.27408C85.37183 351.9309 84.028694 353.27408 82.37183 353.27408C80.71498 353.27408 79.37183 351.9309 79.37183 350.27408C79.37183 348.61722 80.71498 347.27408 82.37183 347.27408C84.028694 347.27408 85.37183 348.61722 85.37183 350.27408Z" fill-rule="nonzero"/><path fill="#000000" fill-opacity="0.0" clip-path="url(#id_0)" d="M115.33048 347.01984C115.33048 348.6767 113.987335 350.01984 112.33048 350.01984C110.67363 350.01984 109.33048 348.6767 109.33048 347.01984C109.33048 345.363 110.67363 344.01984 112.33048 344.01984C113.987335 344.01984 115.33048 345.363 115.33048 347.01984Z" fill-rule="nonzero"/><path fill="#000000" fill-opacity="0.0" clip-path="url(#id_0)" d="M145.28912 343.76562C145.28912 345.4225 143.94598 346.76562 142.28912 346.76562C140.63226 346.76562 139.28912 345.4225 139.28912 343.76562C139.28912 342.10876 140.63226 340.76562 142.28912 340.76562C143.94598 340.76562 145.28912 342.10876 145.28912 343.76562Z" fill-rule="nonzero"/><path fill="#000000" fill-opacity="0.0" clip-path="url(#id_0)" d="M175.24777 275.427C175.24777 277.08386 173.90462 278.427 172.24777 278.427C170.59091 278.427 169.24777 277.08386 169.24777 275.427C169.24777 273.77014 170.59091 272.427 172.24777 272.427C173.90462 272.427 175.24777 273.77014 175.24777 275.427Z" fill-rule="nonzero"/><path fill="#000000" fill-opacity="0.0" clip-path="url(#id_0)" d="M205.2064 272.1728C205.2064 273.82965 203.86327 275.1728 202.2064 275.1728C200.54956 275.1728 199.2064 273.82965 199.2064 272.1728C199.2064 270.51593 200.54956 269.1728 202.2064 269.1728C203.86327 269.1728 205.2064 270.51593 205.2064 272.1728Z" fill-rule="nonzero"/><path fill="#000000" fill-opacity="0.0" clip-path="url(#id_0)" d="M235.16505 268.91858C235.16505 270.5754 233.82191 271.91858 232.16505 271.91858C230.5082 271.91858 229.16505 270.5754 229.16505 268.91858C229.16505 267.26172 230.5082 265.91858 232.16505 265.91858C233.82191 265.91858 235.16505 267.26172 235.16505 268.91858Z" fill-rule="nonzero"/><path fill="#000000" fill-opacity="0.0" clip-path="url(#id_0)" d="M265.1237 268.91858C265.1237 270.5754 263.78055 271.91858 262.1237 271.91858C260.46686 271.91858 259.1237 270.5754 259.1237 268.91858C259.1237 267.26172 260.46686 265.91858 262.1237 265.91858C263.78055 265.91858 265.1237 267.26172 265.1237 268.91858Z" fill-rule="nonzero"/><path fill="#000000" fill-opacity="0.0" clip-path="url(#id_0)" d="M295.08234 265.66434C295.08234 267.3212 293.7392 268.66434 292.08234 268.66434C290.42548 268.66434 289.08234 267.3212 289.08234 265.66434C289.08234 264.0075 290.42548 262.66434 292.08234 262.66434C293.7392 262.66434 295.08234 264.0075 295.08234 265.66434Z" fill-rule="nonzero"/><path fill="#000000" fill-opacity="0.0" clip-path="url(#id_0)" d="M325.041 262.41013C325.041 264.067 323.69785 265.41013 322.041 265.41013C320.38412 265.41013 319.041 264.067 319.041 262.41013C319.041 260.75327 320.38412 259.41013 322.041 259.41013C323.69785 259.41013 325.041 260.75327 325.041 262.41013Z" fill-rule="nonzero"/><path fill="#000000" fill-opacity="0.0" clip-path="url(#id_0)" d="M354.99963 194.07152C354.99963 195.72836 353.6565 197.07152 351.99963 197.07152C350.34277 197.07152 348.99963 195.72836 348.99963 194.07152C348.99963 192.41466 350.34277 191.07152 351.99963 191.07152C353.6565 191.07152 354.99963 192.41466 354.99963 194.07152Z" fill-rule="nonzero"/><path fill="#000000" fill-opacity="0.0" clip-path="url(#id_0)" d="M384.95828 190.81729C384.95828 192.47415 383.6151 193.81729 381.95828 193.81729C380.30142 193.81729 378.95828 192.47415 378.95828 190.81729C378.95828 189.16045 380.30142 187.81729 381.95828 187.81729C383.6151 187.81729 384.95828 189.16045 384.95828 190.81729Z" fill-rule="nonzero"/><path fill="#000000" fill-opacity="0.0" clip-path="url(#id_0)" d="M414.9169 187.56308C414.9169 189.21992 413.57376 190.56308 411.9169 190.56308C410.26007 190.56308 408.9169 189.21992 408.9169 187.56308C408.9169 185.90622 410.26007 184.56308 411.9169 184.56308C413.57376 184.56308 414.9169 185.90622 414.9169 187.56308Z" fill-rule="nonzero"/><path fill="#000000" fill-opacity="0.0" clip-path="url(#id_0)" d="M444.87555 187.56308C444.87555 189.21992 443.5324 190.56308 441.87555 190.56308C440.2187 190.56308 438.87555 189.21992 438.87555 187.56308C438.87555 185.90622 440.2187 184.56308 441.87555 184.56308C443.5324 184.56308 444.87555 185.90622 444.87555 187.56308Z" fill-rule="nonzero"/><path fill="#000000" fill-opacity="0.0" clip-path="url(#id_0)" d="M474.8342 184.30885C474.8342 185.96571 473.49106 187.30885 471.8342 187.30885C470.17734 187.30885 468.8342 185.96571 468.8342 184.30885C468.8342 182.652 470.17734 181.30885 471.8342 181.30885C473.49106 181.30885 474.8342 182.652 474.8342 184.30885Z" fill-rule="nonzero"/><path fill="#000000" fill-opacity="0.0" clip-path="url(#id_0)" d="M504.79285 181.05464C504.79285 182.71149 503.4497 184.05464 501.79285 184.05464C500.136 184.05464 498.79285 182.71149 498.79285 181.05464C498.79285 179.39778 500.136 178.05464 501.79285 178.05464C503.4497 178.05464 504.79285 179.39778 504.79285 181.05464Z" fill-rule="nonzero"/><path fill="#000000" fill-opacity="0.0" clip-path="url(#id_0)" d="M534.75146 112.71602C534.75146 114.37287 533.4083 115.71602 531.75146 115.71602C530.0946 115.71602 528.75146 114.37287 528.75146 112.71602C528.75146 111.059166 530.0946 109.71602 531.75146 109.71602C533.4083 109.71602 534.75146 111.059166 534.75146 112.71602Z" fill-rule="nonzero"/><path fill="#000000" fill-opacity="0.0" clip-path="url(#id_0)" d="M564.71014 109.4618C564.71014 111.11865 563.367 112.4618 561.71014 112.4618C560.0533 112.4618 558.71014 111.11865 558.71014 109.4618C558.71014 107.80495 560.0533 106.4618 561.71014 106.4618C563.367 106.4618 564.71014 107.80495 564.71014 109.4618Z" fill-rule="nonzero"/><path fill="#000000" fill-opacity="0.0" clip-path="url(#id_0)" d="M594.66876 106.20758C594.66876 107.86443 593.3256 109.20758 591.66876 109.20758C590.0119 109.20758 588.66876 107.86443 588.66876 106.20758C588.66876 104.55072 590.0119 103.20758 591.66876 103.20758C593.3256 103.20758 594.66876 104.55072 594.66876 106.20758Z" fill-rule="nonzero"/><path fill="#000000" fill-opacity="0.0" clip-path="url(#id_0)" d="M85.37183 350.27408C85.37183 351.9309 84.028694 353.27408 82.37183 353.27408C80.71498 353.27408 79.37183 351.9309 79.37183 350.27408C79.37183 348.61722 80.71498 347.27408 82.37183 347.27408C84.028694 347.27408 85.37183 348.61722 85.37183 350.27408Z" fill-rule="nonzero"/><path fill="#000000" fill-opacity="0.0" clip-path="url(#id_0)" d="M115.33048 280.30835C115.33048 281.96518 113.987335 283.30835 112.33048 283.30835C110.67363 283.30835 109.33048 281.96518 109.33048 280.30835C109.33048 278.6515 110.67363 277.30835 112.33048 277.30835C113.987335 277.30835 115.33048 278.6515 115.33048 280.30835Z" fill-rule="nonzero"/><path fill="#000000" fill-opacity="0.0" clip-path="url(#id_0)" d="M145.28912 280.30835C145.28912 281.96518 143.94598 283.30835 142.28912 283.30835C140.63226 283.30835 139.28912 281.96518 139.28912 280.30835C139.28912 278.6515 140.63226 277.30835 142.28912 277.30835C143.94598 277.30835 145.28912 278.6515 145.28912 280.30835Z" fill-rule="nonzero"/><path fill="#000000" fill-opacity="0.0" clip-path="url(#id_0)" d="M175.24777 210.3426C175.24777 211.99947 173.90462 213.3426 172.24777 213.3426C170.59091 213.3426 169.24777 211.99947 169.24777 210.3426C169.24777 208.68576 170.59091 207.3426 172.24777 207.3426C173.90462 207.3426 175.24777 208.68576 175.24777 210.3426Z" fill-rule="nonzero"/><path fill="#000000" fill-opacity="0.0" clip-path="url(#id_0)" d="M205.2064 210.3426C205.2064 211.99947 203.86327 213.3426 202.2064 213.3426C200.54956 213.3426 199.2064 211.99947 199.2064 210.3426C199.2064 208.68576 200.54956 207.3426 202.2064 207.3426C203.86327 207.3426 205.2064 208.68576 205.2064 210.3426Z" fill-rule="nonzero"/><path fill="#000000" fill-opacity="0.0" clip-path="url(#id_0)" d="M235.16505 140.37689C235.16505 142.03374 233.82191 143.37689 232.16505 143.37689C230.5082 143.37689 229.16505 142.03374 229.16505 140.37689C229.16505 138.72003 230.5082 137.37689 232.16505 137.37689C233.82191 137.37689 235.16505 138.72003 235.16505 140.37689Z" fill-rule="nonzero"/><path fill="#000000" fill-opacity="0.0" clip-path="url(#id_0)" d="M265.1237 140.37689C265.1237 142.03374 263.78055 143.37689 262.1237 143.37689C260.46686 143.37689 259.1237 142.03374 259.1237 140.37689C259.1237 138.72003 260.46686 137.37689 262.1237 137.37689C263.78055 137.37689 265.1237 138.72003 265.1237 140.37689Z" fill-rule="nonzero"/><path fill="#000000" fill-opacity="0.0" clip-path="url(#id_0)" d="M295.08234 70.41116C295.08234 72.068016 293.7392 73.41116 292.08234 73.41116C290.42548 73.41116 289.08234 72.068016 289.08234 70.41116C289.08234 68.7543 290.42548 67.41116 292.08234 67.41116C293.7392 67.41116 295.08234 68.7543 295.08234 70.41116Z" fill-rule="nonzero"/><path fill="#222222" d="M338.00467 372.49512L337.73904 374.02637L338.8953 374.02637L338.73904 374.87012L337.59842 374.87012L336.92654 378.80762Q336.91092 378.96387 336.92654 379.08887Q336.97342 379.542 337.42654 379.542Q337.61404 379.542 337.94217 379.49512L337.86404 380.37012Q337.47342 380.4795 337.0828 380.4795Q336.4578 380.46387 336.12967 380.01074Q335.81717 379.55762 335.8953 378.792L336.53592 374.87012L335.41092 374.87012L335.56717 374.02637L336.67654 374.02637L336.94217 372.49512L338.00467 372.49512Z" fill-rule="nonzero"/><path fill="#424242" d="M28.069317 203.55731L23.194317 201.97919L23.194317 200.86981L29.538067 203.15106L29.538067 203.97919L23.194317 206.27606L23.194317 205.16669L28.069317 203.55731ZM29.538067 195.72919Q29.350567 195.82294 28.866192 195.88544Q29.663067 196.63544 29.663067 197.68231Q29.663067 198.61981 29.131817 199.22919Q28.600567 199.82294 27.772442 199.82294Q26.788067 199.82294 26.241192 199.07294Q25.694317 198.32294 25.694317 196.94794L25.694317 195.90106L25.194317 195.90106Q24.631817 195.90106 24.303692 196.24481Q23.959942 196.57294 23.959942 197.24481Q23.959942 197.82294 24.256817 198.21356Q24.538067 198.60419 24.959942 198.60419L24.959942 199.69794Q24.475567 199.69794 24.038067 199.36981Q23.600567 199.02606 23.350567 198.44794Q23.084942 197.86981 23.084942 197.18231Q23.084942 196.07294 23.631817 195.46356Q24.178692 194.83856 25.131817 194.80731L28.053692 194.80731Q28.928692 194.80731 29.444317 194.58856L29.538067 194.58856L29.538067 195.72919ZM28.709942 197.52606Q28.709942 197.01044 28.444317 196.55731Q28.178692 196.10419 27.756817 195.90106L26.459942 195.90106L26.459942 196.74481Q26.459942 198.74481 27.631817 198.74481Q28.131817 198.74481 28.428692 198.40106Q28.709942 198.05731 28.709942 197.52606ZM29.538067 191.46356L29.538067 192.54169L20.538067 192.54169L20.538067 191.46356L29.538067 191.46356ZM26.303692 189.93231Q25.381817 189.93231 24.631817 189.57294Q23.881817 189.19794 23.491192 188.54169Q23.084942 187.88544 23.084942 187.05731Q23.084942 185.76044 23.975567 184.96356Q24.866192 184.15106 26.366192 184.15106L26.444317 184.15106Q27.366192 184.15106 28.100567 184.51044Q28.834942 184.86981 29.256817 185.52606Q29.663067 186.18231 29.663067 187.04169Q29.663067 188.32294 28.772442 189.13544Q27.866192 189.93231 26.381817 189.93231L26.303692 189.93231ZM26.444317 188.83856Q27.491192 188.83856 28.131817 188.35419Q28.772442 187.85419 28.772442 187.04169Q28.772442 186.21356 28.131817 185.72919Q27.475567 185.24481 26.303692 185.24481Q25.272442 185.24481 24.631817 185.74481Q23.975567 186.22919 23.975567 187.05731Q23.975567 187.85419 24.616192 188.35419Q25.241192 188.83856 26.444317 188.83856ZM24.163067 179.57294Q24.131817 179.82294 24.131817 180.10419Q24.131817 181.18231 25.038067 181.55731L29.538067 181.55731L29.538067 182.63544L23.194317 182.63544L23.194317 181.58856L23.928692 181.57294Q23.084942 181.04169 23.084942 180.05731Q23.084942 179.74481 23.163067 179.57294L24.163067 179.57294ZM29.663067 176.01044Q29.663067 177.30731 28.819317 178.11981Q27.959942 178.91669 26.538067 178.91669L26.350567 178.91669Q25.397442 178.91669 24.663067 178.55731Q23.913067 178.19794 23.506817 177.55731Q23.084942 176.90106 23.084942 176.15106Q23.084942 174.91669 23.897442 174.22919Q24.709942 173.54169 26.225567 173.54169L26.678692 173.54169L26.678692 177.83856Q27.616192 177.80731 28.194317 177.29169Q28.772442 176.76044 28.772442 175.94794Q28.772442 175.38544 28.538067 174.99481Q28.303692 174.58856 27.913067 174.27606L28.428692 173.61981Q29.663067 174.41669 29.663067 176.01044ZM23.975567 176.15106Q23.975567 176.80731 24.459942 177.26044Q24.928692 177.69794 25.788067 177.79169L25.788067 174.61981L25.709942 174.61981Q24.881817 174.66669 24.428692 175.07294Q23.975567 175.46356 23.975567 176.15106Z" fill-rule="nonzero"/><path fill="#b7b7b7" d="M61.439392 350.74283Q61.439392 352.32095 60.892517 353.1022Q60.361267 353.86783 59.205017 353.86783Q58.064392 353.86783 57.517517 353.11783Q56.970642 352.36783 56.955017 350.86783L56.955017 349.6647Q56.955017 348.08658 57.486267 347.33658Q58.033142 346.57095 59.189392 346.57095Q60.345642 346.57095 60.876892 347.30533Q61.423767 348.0397 61.439392 349.57095L61.439392 350.74283ZM60.533142 349.50845Q60.533142 348.3522 60.205017 347.83658Q59.892517 347.30533 59.189392 347.30533Q58.501892 347.30533 58.173767 347.83658Q57.861267 348.3522 57.861267 349.43033L57.861267 350.88345Q57.861267 352.0397 58.189392 352.58658Q58.533142 353.13345 59.205017 353.13345Q59.876892 353.13345 60.189392 352.61783Q60.517517 352.1022 60.533142 350.99283L60.533142 349.50845Z" fill-rule="nonzero"/><path fill="#b7b7b7" d="M47.955017 272.41858L47.048767 272.41858L47.048767 266.40295L45.220642 267.0592L45.220642 266.2467L47.814392 265.27795L47.955017 265.27795L47.955017 272.41858ZM55.439392 269.38733Q55.439392 270.96545 54.892517 271.7467Q54.361267 272.51233 53.205017 272.51233Q52.064392 272.51233 51.517517 271.76233Q50.970642 271.01233 50.955017 269.51233L50.955017 268.3092Q50.955017 266.73108 51.486267 265.98108Q52.033142 265.21545 53.189392 265.21545Q54.345642 265.21545 54.876892 265.94983Q55.423767 266.6842 55.439392 268.21545L55.439392 269.38733ZM54.533142 268.15295Q54.533142 266.9967 54.205017 266.48108Q53.892517 265.94983 53.189392 265.94983Q52.501892 265.94983 52.173767 266.48108Q51.861267 266.9967 51.861267 268.07483L51.861267 269.52795Q51.861267 270.6842 52.189392 271.23108Q52.533142 271.77795 53.205017 271.77795Q53.876892 271.77795 54.189392 271.26233Q54.517517 270.7467 54.533142 269.63733L54.533142 268.15295ZM61.439392 269.38733Q61.439392 270.96545 60.892517 271.7467Q60.361267 272.51233 59.205017 272.51233Q58.064392 272.51233 57.517517 271.76233Q56.970642 271.01233 56.955017 269.51233L56.955017 268.3092Q56.955017 266.73108 57.486267 265.98108Q58.033142 265.21545 59.189392 265.21545Q60.345642 265.21545 60.876892 265.94983Q61.423767 266.6842 61.439392 268.21545L61.439392 269.38733ZM60.533142 268.15295Q60.533142 266.9967 60.205017 266.48108Q59.892517 265.94983 59.189392 265.94983Q58.501892 265.94983 58.173767 266.48108Q57.861267 266.9967 57.861267 268.07483L57.861267 269.52795Q57.861267 270.6842 58.189392 271.23108Q58.533142 271.77795 59.205017 271.77795Q59.876892 271.77795 60.189392 271.26233Q60.517517 270.7467 60.533142 269.63733L60.533142 268.15295Z" fill-rule="nonzero"/><path fill="#b7b7b7" d="M49.642517 191.06308L44.986267 191.06308L44.986267 190.40683L47.439392 187.67245Q47.986267 187.06308 48.189392 186.67245Q48.408142 186.28183 48.408142 185.85995Q48.408142 185.31308 48.064392 184.9537Q47.736267 184.59433 47.173767 184.59433Q46.501892 184.59433 46.126892 184.98495Q45.751892 185.35995 45.751892 186.04745L44.845642 186.04745Q44.845642 185.06308 45.470642 184.46933Q46.111267 183.85995 47.173767 183.85995Q48.158142 183.85995 48.736267 184.37558Q49.314392 184.8912 49.314392 185.7662Q49.314392 186.81308 47.970642 188.2662L46.080017 190.3287L49.642517 190.3287L49.642517 191.06308ZM55.439392 188.03183Q55.439392 189.60995 54.892517 190.3912Q54.361267 191.15683 53.205017 191.15683Q52.064392 191.15683 51.517517 190.40683Q50.970642 189.65683 50.955017 188.15683L50.955017 186.9537Q50.955017 185.37558 51.486267 184.62558Q52.033142 183.85995 53.189392 183.85995Q54.345642 183.85995 54.876892 184.59433Q55.423767 185.3287 55.439392 186.85995L55.439392 188.03183ZM54.533142 186.79745Q54.533142 185.6412 54.205017 185.12558Q53.892517 184.59433 53.189392 184.59433Q52.501892 184.59433 52.173767 185.12558Q51.861267 185.6412 51.861267 186.71933L51.861267 188.17245Q51.861267 189.3287 52.189392 189.87558Q52.533142 190.42245 53.205017 190.42245Q53.876892 190.42245 54.189392 189.90683Q54.517517 189.3912 54.533142 188.28183L54.533142 186.79745ZM61.439392 188.03183Q61.439392 189.60995 60.892517 190.3912Q60.361267 191.15683 59.205017 191.15683Q58.064392 191.15683 57.517517 190.40683Q56.970642 189.65683 56.955017 188.15683L56.955017 186.9537Q56.955017 185.37558 57.486267 184.62558Q58.033142 183.85995 59.189392 183.85995Q60.345642 183.85995 60.876892 184.59433Q61.423767 185.3287 61.439392 186.85995L61.439392 188.03183ZM60.533142 186.79745Q60.533142 185.6412 60.205017 185.12558Q59.892517 184.59433 59.189392 184.59433Q58.501892 184.59433 58.173767 185.12558Q57.861267 185.6412 57.861267 186.71933L57.861267 188.17245Q57.861267 189.3287 58.189392 189.87558Q58.533142 190.42245 59.205017 190.42245Q59.876892 190.42245 60.189392 189.90683Q60.517517 189.3912 60.533142 188.28183L60.533142 186.79745Z" fill-rule="nonzero"/><path fill="#b7b7b7" d="M46.298767 105.70758L46.970642 105.70758Q47.611267 105.70758 47.970642 105.379456Q48.345642 105.05133 48.345642 104.48883Q48.345642 103.23883 47.095642 103.23883Q46.517517 103.23883 46.158142 103.58258Q45.814392 103.910706 45.814392 104.45758L44.908142 104.45758Q44.908142 103.61383 45.533142 103.066956Q46.158142 102.504456 47.095642 102.504456Q48.111267 102.504456 48.673767 103.035706Q49.251892 103.566956 49.251892 104.504456Q49.251892 104.973206 48.955017 105.410706Q48.658142 105.848206 48.126892 106.066956Q48.720642 106.23883 49.033142 106.67633Q49.361267 107.098206 49.361267 107.723206Q49.361267 108.67633 48.736267 109.23883Q48.111267 109.80133 47.111267 109.80133Q46.111267 109.80133 45.470642 109.27008Q44.845642 108.723206 44.845642 107.83258L45.767517 107.83258Q45.767517 108.39508 46.126892 108.73883Q46.486267 109.066956 47.111267 109.066956Q47.767517 109.066956 48.111267 108.723206Q48.455017 108.379456 48.455017 107.73883Q48.455017 107.129456 48.064392 106.80133Q47.689392 106.45758 46.970642 106.45758L46.298767 106.45758L46.298767 105.70758ZM55.439392 106.67633Q55.439392 108.254456 54.892517 109.035706Q54.361267 109.80133 53.205017 109.80133Q52.064392 109.80133 51.517517 109.05133Q50.970642 108.30133 50.955017 106.80133L50.955017 105.598206Q50.955017 104.02008 51.486267 103.27008Q52.033142 102.504456 53.189392 102.504456Q54.345642 102.504456 54.876892 103.23883Q55.423767 103.973206 55.439392 105.504456L55.439392 106.67633ZM54.533142 105.441956Q54.533142 104.285706 54.205017 103.77008Q53.892517 103.23883 53.189392 103.23883Q52.501892 103.23883 52.173767 103.77008Q51.861267 104.285706 51.861267 105.36383L51.861267 106.816956Q51.861267 107.973206 52.189392 108.52008Q52.533142 109.066956 53.205017 109.066956Q53.876892 109.066956 54.189392 108.55133Q54.517517 108.035706 54.533142 106.92633L54.533142 105.441956ZM61.439392 106.67633Q61.439392 108.254456 60.892517 109.035706Q60.361267 109.80133 59.205017 109.80133Q58.064392 109.80133 57.517517 109.05133Q56.970642 108.30133 56.955017 106.80133L56.955017 105.598206Q56.955017 104.02008 57.486267 103.27008Q58.033142 102.504456 59.189392 102.504456Q60.345642 102.504456 60.876892 103.23883Q61.423767 103.973206 61.439392 105.504456L61.439392 106.67633ZM60.533142 105.441956Q60.533142 104.285706 60.205017 103.77008Q59.892517 103.23883 59.189392 103.23883Q58.501892 103.23883 58.173767 103.77008Q57.861267 104.285706 57.861267 105.36383L57.861267 106.816956Q57.861267 107.973206 58.189392 108.52008Q58.533142 109.066956 59.205017 109.066956Q59.876892 109.066956 60.189392 108.55133Q60.517517 108.035706 60.533142 106.92633L60.533142 105.441956Z" fill-rule="nonzero"/><path fill="#b7b7b7" d="M48.798767 25.961458L49.783142 25.961458L49.783142 26.695833L48.798767 26.695833L48.798767 28.352083L47.892517 28.352083L47.892517 26.695833L44.658142 26.695833L44.658142 26.164583L47.830017 21.242708L48.798767 21.242708L48.798767 25.961458ZM45.673767 25.961458L47.892517 25.961458L47.892517 22.477083L47.783142 22.680208L45.673767 25.961458ZM55.439392 25.320833Q55.439392 26.898958 54.892517 27.680208Q54.361267 28.445833 53.205017 28.445833Q52.064392 28.445833 51.517517 27.695833Q50.970642 26.945833 50.955017 25.445833L50.955017 24.242708Q50.955017 22.664583 51.486267 21.914583Q52.033142 21.148958 53.189392 21.148958Q54.345642 21.148958 54.876892 21.883333Q55.423767 22.617708 55.439392 24.148958L55.439392 25.320833ZM54.533142 24.086458Q54.533142 22.930208 54.205017 22.414583Q53.892517 21.883333 53.189392 21.883333Q52.501892 21.883333 52.173767 22.414583Q51.861267 22.930208 51.861267 24.008333L51.861267 25.461458Q51.861267 26.617708 52.189392 27.164583Q52.533142 27.711458 53.205017 27.711458Q53.876892 27.711458 54.189392 27.195833Q54.517517 26.680208 54.533142 25.570833L54.533142 24.086458ZM61.439392 25.320833Q61.439392 26.898958 60.892517 27.680208Q60.361267 28.445833 59.205017 28.445833Q58.064392 28.445833 57.517517 27.695833Q56.970642 26.945833 56.955017 25.445833L56.955017 24.242708Q56.955017 22.664583 57.486267 21.914583Q58.033142 21.148958 59.189392 21.148958Q60.345642 21.148958 60.876892 21.883333Q61.423767 22.617708 61.439392 24.148958L61.439392 25.320833ZM60.533142 24.086458Q60.533142 22.930208 60.205017 22.414583Q59.892517 21.883333 59.189392 21.883333Q58.501892 21.883333 58.173767 22.414583Q57.861267 22.930208 57.861267 24.008333L57.861267 25.461458Q57.861267 26.617708 58.189392 27.164583Q58.533142 27.711458 59.205017 27.711458Q59.876892 27.711458 60.189392 27.195833Q60.517517 26.680208 60.533142 25.570833L60.533142 24.086458Z" fill-rule="nonzero"/></svg>